{
    "asset" : {
        "generator" : "Khronos glTF Blender I/O v3.2.43",
        "version" : "2.0"
    },
    "scene" : 0,
    "scenes" : [
        {
            "name" : "Scene",
            "nodes" : [
                0
            ]
        }
    ],
    "nodes" : [
        {
            "mesh" : 0,
            "name" : "Landscape"
        }
    ],
    "materials" : [
        {
            "doubleSided" : true,
            "name" : "Ground",
            "pbrMetallicRoughness" : {
                "metallicFactor" : 0,
                "roughnessFactor" : 0.9818181991577148
            }
        }
    ],
    "meshes" : [
        {
            "name" : "Landscape",
            "primitives" : [
                {
                    "attributes" : {
                        "POSITION" : 0,
                        "NORMAL" : 1
                    },
                    "indices" : 2,
                    "material" : 0
                }
            ]
        }
    ],
    "accessors" : [
        {
            "bufferView" : 0,
            "componentType" : 5126,
            "count" : 23112,
            "max" : [
                4.482878684997559,
                1.0551007986068726,
                4.434898376464844
            ],
            "min" : [
                -4.553225994110107,
                -1.4811161756515503,
                -4.704338550567627
            ],
            "type" : "VEC3"
        },
        {
            "bufferView" : 1,
            "componentType" : 5126,
            "count" : 23112,
            "type" : "VEC3"
        },
        {
            "bufferView" : 2,
            "componentType" : 5123,
            "count" : 23112,
            "type" : "SCALAR"
        }
    ],
    "bufferViews" : [
        {
            "buffer" : 0,
            "byteLength" : 277344,
            "byteOffset" : 0
        },
        {
            "buffer" : 0,
            "byteLength" : 277344,
            "byteOffset" : 277344
        },
        {
            "buffer" : 0,
            "byteLength" : 46224,
            "byteOffset" : 554688
        }
    ],
    "buffers" : [
        {
            "byteLength" : 600912,
            "uri" : "data:application/octet-stream;base64,"
        }
    ]
}
